<?xml version="1.0" encoding="UTF-8"?> <svg xmlns="http://www.w3.org/2000/svg" width="128" height="24" fill="none"><g clip-path="url(#a)"><path fill="#353738" d="M40.96 20.993V3h5.895c1.87 0 3.487.38 4.864 1.136a7.998 7.998 0 0 1 3.197 3.156c.756 1.34 1.137 2.908 1.137 4.7 0 1.794-.381 3.34-1.137 4.702a7.96 7.96 0 0 1-3.197 3.176c-1.377.756-3 1.137-4.864 1.137h-5.894v-.014Zm2.846-2.534h3.091c1.271 0 2.372-.269 3.311-.798a5.505 5.505 0 0 0 2.174-2.245c.515-.967.77-2.11.77-3.43 0-1.32-.262-2.457-.77-3.417a5.513 5.513 0 0 0-2.174-2.23c-.932-.53-2.04-.798-3.31-.798h-3.092v12.925-.007ZM62.743 21.282c-.982 0-1.85-.218-2.598-.663a4.48 4.48 0 0 1-1.73-1.857c-.402-.797-.606-1.715-.606-2.767V7.927h2.731v7.828c0 .593.12 1.123.36 1.567.24.452.58.805 1.017 1.052.438.247.932.374 1.496.374.565 0 1.087-.127 1.525-.388.438-.254.77-.621 1.016-1.087.24-.466.36-1.017.36-1.645V7.927h2.732v13.066h-2.612V18.43l.311.34c-.303.818-.819 1.446-1.532 1.87-.72.424-1.538.642-2.477.642h.007ZM75.662 21.282c-.882 0-1.666-.155-2.33-.458a3.604 3.604 0 0 1-1.56-1.306c-.367-.565-.557-1.221-.557-1.984 0-.706.155-1.341.473-1.906.31-.564.797-1.037 1.447-1.426.65-.388 1.482-.663 2.499-.818l4.538-.749v2.175l-4.009.677c-.727.127-1.256.36-1.595.699a1.703 1.703 0 0 0-.508 1.256c0 .502.19.904.564 1.222.381.31.869.473 1.461.473.728 0 1.363-.163 1.92-.48a3.581 3.581 0 0 0 1.306-1.292c.31-.537.473-1.137.473-1.8v-3.36c0-.629-.24-1.15-.727-1.56-.48-.41-1.122-.614-1.906-.614-.706 0-1.334.183-1.87.557a3.309 3.309 0 0 0-1.193 1.476l-2.294-1.137a4.715 4.715 0 0 1 1.193-1.715 5.66 5.66 0 0 1 1.906-1.158 6.648 6.648 0 0 1 2.357-.41c1.03 0 1.941.191 2.739.58.798.388 1.419.924 1.856 1.609.445.685.664 1.475.664 2.379V21h-2.612v-2.343l.53.049c-.304.53-.692.988-1.158 1.376a5.152 5.152 0 0 1-1.617.897c-.614.212-1.277.31-2.004.31l.014-.007ZM85.227 20.993V2.71h2.731v18.283h-2.731ZM95.488 21.282c-1.355 0-2.527-.331-3.529-.988-1.002-.663-1.701-1.546-2.103-2.654l2.103-.988c.353.741.84 1.327 1.461 1.764.621.438 1.306.65 2.068.65.643 0 1.165-.148 1.567-.438.403-.29.607-.684.607-1.186 0-.303-.091-.557-.268-.762a2.066 2.066 0 0 0-.663-.494 5.176 5.176 0 0 0-.812-.31l-2.054-.58c-1.144-.324-1.99-.804-2.548-1.446-.558-.643-.833-1.398-.833-2.274 0-.79.197-1.482.607-2.075.402-.593.96-1.052 1.666-1.376.706-.325 1.51-.48 2.414-.48 1.193 0 2.251.296 3.19.882a4.79 4.79 0 0 1 1.984 2.45l-2.125 1.016a3.323 3.323 0 0 0-1.207-1.525 3.267 3.267 0 0 0-1.856-.557c-.593 0-1.073.14-1.426.423s-.53.65-.53 1.101c0 .304.078.558.24.763.163.204.367.36.629.48.254.12.522.218.797.303l2.125.629c1.08.303 1.906.783 2.485 1.44.578.649.868 1.425.868 2.329 0 .77-.205 1.454-.614 2.04-.41.586-.981 1.045-1.701 1.376-.72.332-1.567.494-2.534.494l-.008-.007ZM107.208 21.282c-.982 0-1.85-.218-2.598-.663a4.488 4.488 0 0 1-1.73-1.857c-.402-.797-.607-1.715-.607-2.767V7.927h2.732v7.828c0 .593.12 1.123.36 1.567.24.452.579.805 1.017 1.052.437.247.931.374 1.496.374s1.087-.127 1.525-.388c.438-.254.769-.621 1.016-1.087.24-.466.36-1.017.36-1.645V7.927h2.732v13.066h-2.612V18.43l.311.34c-.304.818-.819 1.446-1.532 1.87-.72.424-1.539.642-2.478.642h.008ZM116.215 20.993V7.927h2.612v2.562l-.311-.339c.325-.818.84-1.447 1.546-1.87.706-.424 1.532-.643 2.463-.643.932 0 1.822.212 2.563.629a4.46 4.46 0 0 1 1.736 1.736c.417.741.628 1.595.628 2.563v8.428h-2.731v-7.701c0-.643-.12-1.193-.36-1.652a2.614 2.614 0 0 0-1.017-1.073 2.915 2.915 0 0 0-1.496-.388c-.565 0-1.066.127-1.511.388a2.626 2.626 0 0 0-1.023 1.073c-.24.459-.36 1.01-.36 1.652v7.7H116.215Z"></path><path fill="#E87517" d="M15.557.456h-.068a9.28 9.28 0 0 0-2.35.326C8.623 1.957 5.975 3.206 4.793 3.83-1.95 7.403.787 14.587 3.245 18.838c.306.523 1.107.224.998-.373-1.045-5.616 3.402-6.52 3.402-6.52s6.33-1.344 9.29-1.9c3.79-.85 4.713-2.513 4.835-3.715v-.611a2.624 2.624 0 0 0-.142-.66c-.72-2.111-2.52-4.59-6.071-4.603Z"></path><path fill="#63A6FF" d="M16.08 23.218c4.51-1.168 7.164-2.424 8.346-3.049 6.743-3.565 4.006-10.75 1.548-15-.305-.53-1.107-.225-.998.373 1.046 5.609-3.409 6.519-3.409 6.519s-6.322 1.345-9.283 1.901c-5.589 1.257-4.943 4.265-4.699 4.991.87 2.533 3.307 5.61 8.495 4.265Z"></path></g><defs><clipPath id="a"><path fill="#fff" d="M0 0h127.447v24H0z"></path></clipPath></defs></svg> 