<svg width="133" height="24" viewBox="0 0 133 24" fill="none" xmlns="http://www.w3.org/2000/svg">
<g clip-path="url(#clip0)">
<path fill-rule="evenodd" clip-rule="evenodd" d="M1.42286 13.2986H21.5914C21.9771 13.2986 22.3371 13.1443 22.6029 12.8786C22.8771 12.6129 23.0229 12.2443 23.0229 11.8672C23.0057 5.43001 17.76 0.192871 11.3229 0.192871C6.95143 0.192871 2.98286 2.59287 0.96 6.46716C0.591429 7.16144 0.857143 8.02716 1.55143 8.39573C2.25429 8.7643 3.11143 8.49001 3.48 7.79573C5.01429 4.8643 8.02286 3.04716 11.3229 3.04716C15.7029 3.04716 19.3543 6.26144 20.0486 10.4529H1.42286C0.634286 10.4529 0 11.0872 0 11.8757C0 12.6643 0.634286 13.2986 1.42286 13.2986ZM0.943049 17.1129C2.88876 21.2186 6.99448 23.8072 11.5116 23.8072H11.5117C11.6745 23.8072 11.8374 23.8072 12.0002 23.7901C16.363 23.6101 20.2288 21.0472 22.0973 17.0958C22.4402 16.3843 22.1316 15.5358 21.4202 15.2015C20.7088 14.8586 19.8602 15.1672 19.5259 15.8786C18.1116 18.8701 15.1888 20.8072 11.8888 20.9443C8.33162 21.0901 5.04876 19.1015 3.52305 15.8872C3.18019 15.1758 2.33162 14.8758 1.62019 15.2101C0.908764 15.5529 0.608764 16.4015 0.943049 17.1129Z" fill="white"/>
<path d="M111.763 19.9567C109.817 19.9567 107.829 19.1853 106.449 17.8138C105.943 17.3081 105.943 16.4938 106.449 15.9881C106.955 15.4824 107.769 15.4824 108.275 15.9881C109.646 17.3595 111.729 17.6253 113.075 17.1795C113.666 16.9824 114.395 16.571 114.523 15.7138C114.635 14.9853 114.24 14.2995 111.96 13.3224L111.823 13.2622C111.667 13.1941 111.53 13.1339 111.403 13.0738C111.3 13.0224 111.086 12.9367 110.863 12.851L110.836 12.8401C109.386 12.2532 106.415 11.0508 106.466 8.2824C106.5 6.57669 107.529 5.15383 109.217 4.47669C111.583 3.52526 114.557 4.17669 116.46 6.07955C116.966 6.58526 116.966 7.39955 116.46 7.90526C115.955 8.41097 115.14 8.41097 114.635 7.90526C113.306 6.58526 111.386 6.37955 110.177 6.86812C109.432 7.16812 109.055 7.66526 109.037 8.33383C109.02 9.33212 110.821 10.0586 111.801 10.4541L111.815 10.4595C112.097 10.571 112.346 10.6738 112.543 10.7767C112.597 10.8037 112.682 10.841 112.78 10.8842C112.838 10.9095 112.9 10.9368 112.963 10.9653L112.966 10.9665C114.339 11.5587 117.54 12.939 117.06 16.1167C116.812 17.7795 115.646 19.0653 113.872 19.6481C113.203 19.8453 112.492 19.9567 111.763 19.9567Z" fill="white"/>
<path fill-rule="evenodd" clip-rule="evenodd" d="M102.549 14.3423L104.04 17.8823C104.314 18.5337 104.006 19.2966 103.354 19.5794C103.192 19.648 103.029 19.6823 102.857 19.6823C102.352 19.6823 101.872 19.3823 101.666 18.8937L100.5 16.1423H94.3373L93.1716 18.8937C92.9573 19.3823 92.4859 19.6823 91.9801 19.6823C91.8173 19.6823 91.6459 19.648 91.483 19.5794C90.8316 19.3052 90.523 18.5509 90.7973 17.8909L92.2887 14.3594C92.2887 14.3552 92.2909 14.353 92.293 14.3509C92.2951 14.3487 92.2973 14.3466 92.2973 14.3423L96.2316 5.01658C96.2316 5.00403 96.2362 4.99608 96.242 4.98599L96.2428 4.98467C96.2447 4.98135 96.2467 4.97778 96.2487 4.97372C96.253 4.96087 96.2594 4.95015 96.2659 4.93944C96.2723 4.92872 96.2787 4.91801 96.283 4.90515C96.3001 4.88804 96.3087 4.87092 96.3172 4.8538C96.3226 4.83766 96.3314 4.82482 96.3393 4.81331C96.3439 4.80663 96.3484 4.79999 96.3516 4.79372C96.3559 4.78515 96.3623 4.77658 96.3687 4.76801C96.3751 4.75944 96.3816 4.75087 96.3859 4.7423C96.3944 4.72515 96.403 4.70801 96.4201 4.69087C96.4312 4.68535 96.4387 4.67627 96.4472 4.66592C96.4519 4.66024 96.4569 4.65408 96.463 4.64801C96.4716 4.63944 96.478 4.63086 96.4844 4.62229C96.4909 4.61372 96.4973 4.60515 96.5059 4.59658L96.5487 4.55373C96.5573 4.54516 96.5659 4.53873 96.5744 4.5323C96.583 4.52587 96.5916 4.51944 96.6001 4.51087C96.6087 4.5023 96.6259 4.48515 96.643 4.47658C96.6543 4.46908 96.6639 4.46158 96.6725 4.4548C96.6837 4.4461 96.6934 4.43854 96.703 4.43372C96.7201 4.41658 96.7373 4.40801 96.7544 4.39944C96.7706 4.39406 96.7833 4.38531 96.7948 4.37741C96.8016 4.37273 96.808 4.36834 96.8144 4.36515C96.823 4.36087 96.8337 4.35659 96.8444 4.3523C96.8551 4.34801 96.8659 4.34373 96.8744 4.33944C96.883 4.33087 96.9001 4.32231 96.9172 4.31374L96.9259 4.31372C96.943 4.30516 96.9602 4.29658 96.9859 4.28801C96.9927 4.28574 96.9989 4.28407 97.0047 4.28252C97.0206 4.27826 97.0333 4.27485 97.0459 4.2623C97.0544 4.2623 97.063 4.26015 97.0716 4.25801C97.0802 4.25587 97.0887 4.25372 97.0973 4.25372C97.1916 4.22801 97.2944 4.21087 97.3887 4.21087H97.4573C97.5516 4.21944 97.6373 4.22801 97.7316 4.25372C97.7428 4.25748 97.7525 4.25959 97.7612 4.2615C97.7723 4.26394 97.7819 4.26605 97.7916 4.27087C97.8001 4.27515 97.8087 4.2773 97.8173 4.27944C97.8259 4.28158 97.8344 4.28372 97.843 4.28801C97.8559 4.2923 97.8666 4.29658 97.8773 4.30087C97.888 4.30515 97.8987 4.30944 97.9116 4.31372H97.9201C97.9327 4.31372 97.9407 4.31832 97.9507 4.32415C97.9544 4.32628 97.9584 4.32857 97.963 4.33087C97.9809 4.34282 97.9988 4.3506 98.0139 4.35713C98.0204 4.35996 98.0264 4.36256 98.0316 4.36515C98.0401 4.36944 98.0487 4.37587 98.0573 4.3823C98.0659 4.38873 98.0744 4.39515 98.083 4.39944C98.0916 4.40373 98.1001 4.41016 98.1087 4.41659C98.1173 4.423 98.1259 4.42945 98.1344 4.43372C98.1516 4.4423 98.1687 4.45087 98.1859 4.46801C98.203 4.47658 98.2201 4.48515 98.2373 4.5023C98.2459 4.51087 98.2544 4.51729 98.263 4.52372C98.2716 4.53015 98.2801 4.53658 98.2887 4.54515C98.2942 4.55622 98.3034 4.56372 98.3137 4.57225C98.3194 4.57694 98.3255 4.58194 98.3316 4.58801C98.3426 4.59353 98.3501 4.60261 98.3586 4.61295C98.3633 4.61864 98.3684 4.6248 98.3744 4.63087C98.383 4.63944 98.3894 4.64802 98.3959 4.65659C98.4023 4.66516 98.4087 4.67373 98.4173 4.6823C98.4216 4.69087 98.428 4.69944 98.4344 4.70801C98.4409 4.71658 98.4473 4.72515 98.4516 4.73373C98.4559 4.7423 98.4623 4.75087 98.4687 4.75944C98.4751 4.76801 98.4816 4.77658 98.4859 4.78515C98.4901 4.7937 98.4965 4.80224 98.5029 4.81079C98.5094 4.81936 98.5158 4.82801 98.5201 4.83658C98.5373 4.85371 98.5458 4.87084 98.5544 4.88797C98.5715 4.91369 98.5801 4.93087 98.5887 4.95658C98.5887 4.96913 98.5933 4.97709 98.5991 4.98718L98.6015 4.99137C98.603 4.99387 98.6044 4.99653 98.6059 4.99944L102.54 14.3252C102.549 14.3337 102.549 14.3337 102.549 14.3423ZM97.423 8.8223L95.4259 13.5452H99.4116L97.423 8.8223Z" fill="white"/>
<path d="M39.9344 17.0937H32.4601V12.9537H37.7658C38.4773 12.9537 39.0516 12.3794 39.0516 11.668C39.0516 10.9566 38.4773 10.3823 37.7658 10.3823H32.4601V6.79088H39.3944C40.1058 6.79088 40.6801 6.21659 40.6801 5.50516C40.6801 4.79373 40.1058 4.21945 39.3944 4.21945H31.1658C30.4544 4.21945 29.8801 4.79373 29.8801 5.50516V18.3794C29.8801 19.0909 30.4544 19.6652 31.1658 19.6652H39.9344C40.6458 19.6652 41.2201 19.0909 41.2201 18.3794C41.2201 17.668 40.6544 17.0937 39.9344 17.0937Z" fill="white"/>
<path d="M130.749 17.0937H123.266V12.9537H128.572C129.283 12.9537 129.866 12.3794 129.866 11.668C129.866 10.9566 129.292 10.3823 128.572 10.3823H123.266V6.79088H130.2C130.912 6.79088 131.486 6.21659 131.486 5.50516C131.486 4.79373 130.912 4.21945 130.2 4.21945H121.972C121.26 4.21945 120.677 4.79373 120.677 5.50516V18.3794C120.677 19.0909 121.252 19.6652 121.972 19.6652H130.74C131.452 19.6652 132.026 19.0909 132.026 18.3794C132.026 17.668 131.46 17.0937 130.749 17.0937Z" fill="white"/>
<path d="M55.8431 19.6737H55.5174C55.1231 19.6737 54.7459 19.4937 54.4974 19.1766L46.4831 8.90802V18.3794C46.4831 19.0909 45.9088 19.6652 45.1974 19.6652C44.4859 19.6652 43.9117 19.0909 43.9117 18.3794V5.50516C43.9117 4.79373 44.4859 4.21945 45.1974 4.21945H45.4717C45.8659 4.21945 46.2431 4.39945 46.4917 4.71659L54.5659 15.0537V5.50516C54.5659 4.79373 55.1402 4.21945 55.8517 4.21945C56.5631 4.21945 57.1374 4.79373 57.1374 5.50516V18.3794C57.1288 19.0909 56.5545 19.6737 55.8431 19.6737Z" fill="white"/>
<path d="M85.4575 5.50516C85.4575 4.79373 86.0318 4.21945 86.7432 4.21945C87.4546 4.21945 88.0289 4.79373 88.0289 5.50516V18.3709C88.0289 19.0823 87.4546 19.6566 86.7432 19.6566C86.0318 19.6566 85.4575 19.0823 85.4575 18.3709V12.9452H78.1032V18.3709C78.1032 19.0823 77.5289 19.6566 76.8175 19.6566C76.1061 19.6566 75.5318 19.0823 75.5318 18.3709V5.50516C75.5318 4.79373 76.1061 4.21945 76.8175 4.21945C77.5289 4.21945 78.1032 4.79373 78.1032 5.50516V10.3737H85.4575V5.50516Z" fill="white"/>
<path fill-rule="evenodd" clip-rule="evenodd" d="M61.1918 18.388C61.1918 19.0994 61.7661 19.6737 62.4775 19.6737C63.1889 19.6737 63.7632 19.0909 63.7718 18.388V13.8623H67.7747C70.6632 13.8623 72.7632 11.8309 72.7632 9.03658C72.7632 6.2423 70.6632 4.21087 67.7747 4.21087H62.4775C61.7661 4.21087 61.1918 4.79372 61.1918 5.50515V18.388ZM67.7661 11.2737H63.7632V6.7823H67.7661C69.2318 6.7823 70.1746 7.66515 70.1746 9.02801C70.1746 10.3909 69.2318 11.2737 67.7661 11.2737Z" fill="white"/>
</g>
<defs>
<clipPath id="clip0">
<rect width="132.857" height="24" fill="white"/>
</clipPath>
</defs>
</svg>
