<?xml version="1.0" encoding="UTF-8"?>
<svg xmlns="http://www.w3.org/2000/svg" id="Layer_2" data-name="Layer 2" viewBox="0 0 337.51 43.78">
  <g id="Layer_1-2" data-name="Layer 1">
    <path d="M267.84,43.21h-6.13V.61h6.08l.05,42.6ZM275.47,37.92l-3.92,5.29h19.31v-5.29h-15.39ZM176.45.62h-20.65v5.29h14.61v37.3h6.02l.02-42.59ZM184.09.62l-3.92,5.29h10.86V.62h-6.94ZM6.09,24.17h21.36v-5.17H6.09v-5.33L0,9.16v34.06h6.09v-19.05ZM30.07,5.91V.62H.01v5.33l30.06-.04ZM13.69,37.92l-3.92,5.29h21.16v-5.29H13.69ZM314.45.62h-6.08v42.6h6.1l-.02-42.6ZM322.09,37.92l-3.92,5.29h19.34v-5.29h-15.42ZM238.68,43.21h6.39L225.72.61h-5.85l18.81,42.6ZM221.06,10.47h-5.83l-14.83,32.75h6.27l14.39-32.75ZM50.22,43.21h6.09V11.62h-6.09v31.59ZM83.46.62v31.74L57.9.62h-7.52l34.18,42.6h4.99V.62h-6.09ZM127.67,19.25c-7.32-1.51-11.04-3.13-11.04-7.75v-.12c0-3.75,3.5-6.37,8.52-6.37,4.34,0,8.1,1.41,11.82,4.45l.31.25,3.21-4.26-.29-.23c-4.68-3.71-9.01-5.22-14.93-5.22-8.05,0-14.12,5.07-14.12,11.79v.12c0,6.71,4.02,10.19,14.33,12.44,8.93,1.94,10.57,4.08,10.57,7.57v.12c0,4.02-3.59,6.73-8.94,6.73s-9.58-1.68-14.08-5.81l-.29-.27-3.42,4.05.27.25c5.12,4.63,10.63,6.79,17.34,6.79,8.63,0,14.65-5.02,14.65-12.21v-.12c0-6.36-4.15-10.01-13.91-12.2Z" style="fill: #fff; stroke-width: 0px;"></path>
  </g>
</svg>
