<svg width="88" height="88" viewBox="0 0 88 88" fill="none" xmlns="http://www.w3.org/2000/svg">
<g clip-path="url(#clip0_6675_35574)">
<path d="M88 43.9927C88 52.6936 85.4195 61.1991 80.5847 68.4337C75.7499 75.6682 68.878 81.3069 60.8381 84.6366C52.7981 87.9663 43.9513 88.8375 35.4161 87.1401C26.881 85.4426 19.0409 81.2527 12.8874 75.1002C6.73384 68.9477 2.5432 61.109 0.845452 52.5752C-0.852298 44.0415 0.01911 35.196 3.34937 27.1574C6.67962 19.1188 12.3192 12.2481 19.5549 7.4141C26.7907 2.58012 35.2977 0 44 0C55.6696 0 66.8612 4.63494 75.1128 12.8852C83.3644 21.1354 88 32.3251 88 43.9927Z" fill="white"/>
<path d="M53.7988 68.7459C53.6069 68.6102 53.3727 68.5478 53.1387 68.5699C52.8868 68.5494 52.6361 68.6225 52.4347 68.7752C52.3053 68.8732 52.2034 69.0031 52.1392 69.1521C52.0749 69.3012 52.0504 69.4643 52.0681 69.6257V72.2213H54.1361C54.1361 72.2213 54.1361 69.7723 54.1361 69.6257C54.1613 69.4637 54.1448 69.2981 54.0883 69.1442C54.0319 68.9903 53.9372 68.8532 53.8133 68.7459" fill="#E30513"/>
<path d="M43.9976 -2.19265e-05C37.0019 -0.00460329 30.1061 1.65866 23.8819 4.85177C17.6578 8.04489 12.2849 12.6758 8.20891 18.3604C4.13292 24.045 1.47129 30.6193 0.444909 37.5381C-0.581474 44.4569 0.0569175 51.5207 2.30716 58.1435C4.5574 64.7662 8.35461 70.7571 13.3838 75.619C18.413 80.481 24.5292 84.0738 31.2249 86.0997C37.9207 88.1255 45.0032 88.5259 51.8847 87.2675C58.7662 86.0092 65.2484 83.1284 70.7936 78.8642C70.4067 78.8814 70.0197 78.8317 69.6496 78.7175C69.344 78.6137 69.0709 78.4317 68.8575 78.1896C68.7067 78.0243 68.583 77.8363 68.4908 77.6324C68.4056 77.4027 68.3658 77.1587 68.3736 76.9138V74.8461H70.3976V76.4739C70.3896 76.6999 70.4455 76.9235 70.5589 77.1192C70.6246 77.2129 70.7127 77.2888 70.8151 77.34C70.9175 77.3912 71.0311 77.4161 71.1456 77.4124H71.3069C71.4448 77.3982 71.576 77.3453 71.685 77.2596C71.7941 77.174 71.8766 77.0592 71.923 76.9285C71.9373 76.7431 71.9373 76.5568 71.923 76.3713V75.5354C71.9095 75.2316 71.8017 74.9395 71.6149 74.6995C71.3587 74.3899 71.0739 74.1051 70.7643 73.849L70.5883 73.6583C69.887 73.1265 69.2734 72.4883 68.7696 71.7667C68.4714 71.2192 68.3293 70.6003 68.3589 69.9776C68.3353 69.4328 68.4408 68.8902 68.6668 68.3939C68.8316 68.0622 69.0856 67.783 69.4002 67.5874C69.6361 67.4511 69.8871 67.3427 70.1482 67.2648C70.4898 67.1881 70.8396 67.1536 71.1896 67.1621C71.854 67.1015 72.5206 67.2503 73.0962 67.5874C73.3568 67.7964 73.559 68.0691 73.6829 68.3793C73.7933 68.6793 73.8432 68.9983 73.8295 69.3178V70.9749H71.9377V69.3764C71.9504 69.1683 71.8821 68.9633 71.747 68.8045C71.6804 68.7324 71.5982 68.6765 71.5067 68.6409C71.4152 68.6053 71.3168 68.5911 71.219 68.5993C71.0119 68.5983 70.8123 68.677 70.6617 68.8192C70.5622 68.9439 70.4888 69.0874 70.4459 69.2411C70.4031 69.3948 70.3916 69.5555 70.4123 69.7137C70.3979 70.1525 70.499 70.5874 70.7055 70.9749C71.1192 71.5335 71.6134 72.0277 72.1722 72.4413C72.7741 72.8642 73.275 73.415 73.6389 74.0543C73.917 74.686 74.0426 75.3742 74.0055 76.0633V76.2539C80.4971 70.2367 85.0226 62.4016 86.9905 53.7724C88.9584 45.1432 88.2773 36.1212 85.0362 27.8851C81.795 19.649 76.1446 12.5819 68.8231 7.60704C61.5017 2.63223 52.8497 -0.018902 43.9976 -2.19265e-05ZM39.9202 24.9292C43.1096 23.751 46.5417 23.3832 49.9083 23.8587L42.575 31.1908H31.9857C33.8753 28.282 36.6918 26.0963 39.9789 24.9878L39.9202 24.9292ZM21.7922 23.9173H30.695L27.5563 31.2494H18.6535L21.7922 23.9173ZM29.8002 78.2776C29.1392 78.7831 28.3111 79.0189 27.4829 78.9375C27.042 78.9542 26.6012 78.8997 26.1776 78.7762C25.891 78.6824 25.6367 78.5096 25.4442 78.2776C25.269 78.0866 25.1254 77.8687 25.0189 77.6324C24.9243 77.4256 24.8791 77.1997 24.8869 76.9725V74.9049H26.8523V76.4885C26.835 76.7492 26.9073 77.008 27.0575 77.2217C27.2188 77.427 27.3655 77.5004 27.7762 77.4711C27.9147 77.4587 28.0467 77.4063 28.1561 77.3204C28.2654 77.2345 28.3474 77.1188 28.3922 76.9872C28.4138 76.802 28.4138 76.615 28.3922 76.4299V75.5794C28.38 75.2822 28.2778 74.9958 28.099 74.7582C27.7748 74.3889 27.4268 74.0412 27.0575 73.7171C26.3601 73.1809 25.7472 72.5432 25.239 71.8253C24.9475 71.2753 24.8058 70.6584 24.8282 70.0363C24.8087 69.4903 24.9194 68.9474 25.151 68.4526C25.3148 68.1248 25.5628 67.8465 25.8696 67.6461C26.1047 67.508 26.3559 67.3996 26.6176 67.3234C26.9636 67.243 27.3186 67.2086 27.6736 67.2208C28.3391 67.1406 29.012 67.2906 29.5803 67.6461C29.8334 67.8537 30.0323 68.1196 30.16 68.421C30.2878 68.7224 30.3405 69.0502 30.3137 69.3764V71.0335H28.4216V69.6404V69.5524C28.4226 69.3048 28.3339 69.0652 28.1722 68.8778C28.1176 68.8096 28.0485 68.7545 27.9699 68.7164C27.8912 68.6784 27.805 68.6584 27.7176 68.6579C27.6115 68.6443 27.5036 68.6573 27.4038 68.6957C27.3039 68.7341 27.2152 68.7966 27.1456 68.8778C26.9592 69.1371 26.8708 69.4541 26.8962 69.7724C26.879 70.2133 26.9858 70.6501 27.2043 71.0335C27.6132 71.5962 28.1082 72.0911 28.671 72.4999C29.2692 72.9271 29.7692 73.477 30.1377 74.1129C30.4158 74.7446 30.5414 75.4328 30.5043 76.1219C30.5461 76.5219 30.5051 76.9262 30.384 77.3096C30.2629 77.6931 30.0641 78.0475 29.8002 78.3509V78.2776ZM34.4496 82.9849H32.499L33.4377 78.7322L30.8857 67.3968H33.0857L34.5523 75.858L36.019 67.3968H38.1309L34.4496 82.9849ZM43.499 78.3509C42.8309 78.8534 41.9992 79.0887 41.1668 79.0108C40.7259 79.0265 40.2855 78.9721 39.8617 78.8495C39.5692 78.7507 39.3068 78.5791 39.099 78.3509C38.9367 78.156 38.8033 77.9387 38.7029 77.7057C38.626 77.4941 38.5864 77.2709 38.5857 77.0458V74.9782H40.551V76.6059C40.5414 76.832 40.5974 77.0561 40.7123 77.2511C40.7737 77.3491 40.8611 77.4283 40.9645 77.4801C41.068 77.5318 41.1837 77.554 41.299 77.5444H41.4603C41.5982 77.5302 41.7292 77.4772 41.8382 77.3915C41.9473 77.3059 42.0298 77.1911 42.0762 77.0605C42.1048 76.8758 42.1048 76.6879 42.0762 76.5032V75.8727C42.0911 75.5012 41.9829 75.1352 41.7682 74.8316C41.512 74.522 41.2273 74.2372 40.9176 73.981L40.7416 73.7904C40.0404 73.2586 39.4268 72.6203 38.923 71.8987C38.6247 71.3513 38.4826 70.7323 38.5123 70.1096C38.4887 69.5648 38.5942 69.0221 38.8202 68.5259C38.9975 68.2029 39.2488 67.9265 39.5535 67.7194C39.7846 67.5736 40.037 67.4648 40.3016 67.3968C40.6456 67.3033 41.0011 67.2588 41.3575 67.2648C42.0126 67.2034 42.6702 67.3523 43.2349 67.69C43.5034 67.9078 43.7191 68.1836 43.8656 68.4966C43.9634 68.8043 44.0031 69.1275 43.9829 69.4497V71.1068H42.0762V69.5084C42.0921 69.3934 42.0804 69.2763 42.0422 69.1666C42.0039 69.057 41.9403 68.958 41.8563 68.8778C41.7879 68.8201 41.7082 68.7774 41.6223 68.7521C41.5365 68.7269 41.4463 68.7197 41.3575 68.7312C41.2542 68.7246 41.1507 68.7409 41.0544 68.7789C40.9581 68.8169 40.8712 68.8758 40.8002 68.9512C40.7007 69.0759 40.6275 69.2193 40.5846 69.373C40.5418 69.5267 40.5303 69.6875 40.551 69.8457C40.5366 70.2845 40.6377 70.7193 40.8442 71.1068C41.2578 71.6655 41.7521 72.1596 42.3109 72.5732C42.9128 72.9961 43.4137 73.5471 43.7776 74.1863C44.0557 74.818 44.1813 75.5062 44.1442 76.1953C44.188 76.5942 44.1495 76.9978 44.0309 77.3812C43.9123 77.7646 43.7162 78.1196 43.4549 78.4242L43.499 78.3509ZM49.4095 79.0255H47.8549C47.3428 79.0688 46.83 78.9508 46.3883 78.6882C46.1656 78.5394 45.9962 78.3238 45.9043 78.0723C45.8082 77.7491 45.7684 77.4118 45.7869 77.0751V68.9218H44.599V67.4554H45.7869V65.1678L47.8256 64.4639V67.3968H49.2922V68.8632H47.8256V76.4005C47.8228 76.5194 47.8455 76.6374 47.892 76.7468C47.9385 76.8561 48.0078 76.9544 48.0952 77.0349C48.1826 77.1153 48.2862 77.1763 48.399 77.2136C48.5119 77.2509 48.6314 77.2636 48.7496 77.2511H49.4535L49.4095 79.0255ZM56.1416 69.8604V73.8637H52.0789V76.2539C52.0441 76.4528 52.0441 76.6562 52.0789 76.8551C52.1363 77.0128 52.2381 77.1503 52.3722 77.2511C52.5788 77.3798 52.8183 77.446 53.0617 77.4417C53.1989 77.4484 53.3358 77.4258 53.4636 77.3754C53.5914 77.325 53.707 77.2481 53.8027 77.1496C53.8984 77.0511 53.9721 76.9333 54.0188 76.8042C54.0655 76.6751 54.0841 76.5375 54.0736 76.4005V74.9341H56.0682V76.2539C56.064 76.7285 55.9643 77.1973 55.775 77.6324C55.5552 78.0291 55.2167 78.3471 54.8069 78.5416C54.1764 78.8247 53.488 78.9553 52.7976 78.9228C52.0215 78.9747 51.2566 78.7163 50.671 78.2043C50.4108 77.9472 50.2083 77.6377 50.0768 77.2964C49.9453 76.9551 49.8879 76.5898 49.9083 76.2246V71.0921C49.8166 70.08 50.0151 69.0628 50.4803 68.1593C50.7272 67.8338 51.0501 67.5741 51.421 67.4028C51.7918 67.2315 52.1991 67.1538 52.6069 67.1768H53.4283C53.9892 67.1419 54.5472 67.2801 55.027 67.5727C55.3429 67.7582 55.6018 68.0271 55.775 68.3499C55.9181 68.5828 56.0127 68.8422 56.0535 69.1125C56.0535 69.3324 56.0535 69.4791 56.0535 69.6404L56.1416 69.8604ZM67.0682 78.7616H65.0295V69.6404C65.0584 69.3832 64.9846 69.125 64.8242 68.9218C64.648 68.7623 64.4164 68.6781 64.1789 68.6872C63.4603 68.6872 63.2402 68.9072 63.2402 69.963V78.7616H61.099V69.523C61.099 69.523 61.0989 68.9512 60.6736 68.7752C60.4815 68.7229 60.2789 68.7229 60.0869 68.7752C59.9758 68.7858 59.868 68.8185 59.7698 68.8714C59.6716 68.9242 59.5848 68.9962 59.5149 69.0831C59.3621 69.2845 59.2889 69.5352 59.3095 69.7871V78.8202H57.1976V67.3527H59.1776V68.5846L59.4123 68.1886C59.5433 67.9873 59.7011 67.8047 59.8815 67.6461C60.0841 67.4783 60.3183 67.353 60.5703 67.2774C60.8222 67.2018 61.0867 67.1776 61.3482 67.2061H61.4363C61.7442 67.1977 62.0485 67.2738 62.3162 67.4261C62.6571 67.6572 62.9224 67.9837 63.0789 68.3646C63.2758 67.9468 63.6061 67.6064 64.0176 67.3968C64.2868 67.2636 64.5826 67.1934 64.8829 67.1915H65.0442C65.4158 67.1953 65.7798 67.2964 66.1002 67.4848C66.3972 67.6525 66.6451 67.8952 66.819 68.1886C66.9999 68.5418 67.0857 68.936 67.0682 69.3325V78.7616ZM69.8549 58.4662H33.1442L28.7442 48.5826C27.4536 45.8404 26.7055 43.9194 25.2535 43.9194H21.9829L15.7056 58.4662H6.80294L16.2776 36.6459H25.0776C30.7242 36.6459 32.8656 38.5669 35.3442 43.978L41.9736 58.2462L45.2883 50.3716H73.6389L69.8549 58.4662ZM75.619 36.6312C73.991 40.3559 71.9522 43.9633 67.9922 43.9633H47.9722C49.5415 40.004 53.1496 36.6312 56.6402 36.6312H65.0736C65.8425 36.5464 66.5754 36.2606 67.1986 35.8023C67.8217 35.344 68.3131 34.7296 68.623 34.021C69.327 32.3933 68.7989 31.0882 66.9363 31.0882H53.3843L56.4643 23.756H76.2643C78.7136 23.756 80.5763 25.3398 78.127 31.0882L75.619 36.6312Z" fill="#E30513"/>
</g>
<defs>
<clipPath id="clip0_6675_35574">
<rect width="88" height="88" fill="white"/>
</clipPath>
</defs>
</svg>
