<svg width="67" height="26" viewBox="0 0 67 26" fill="none" xmlns="http://www.w3.org/2000/svg">
<g clip-path="url(#clip0_1185_16083)">
<path fill-rule="evenodd" clip-rule="evenodd" d="M19.2454 9.26802C14.822 9.26802 11.2387 12.8514 11.2387 17.268C11.2387 18.4752 11.5044 19.6126 11.9796 20.6351H4.92109V9.81306H0.263428V24.8694H10.3378L12.4571 21.518C13.8715 23.777 16.3783 25.277 19.2454 25.277C23.6666 25.277 27.2499 21.6892 27.2499 17.2658C27.2522 12.8514 23.6666 9.26802 19.2454 9.26802ZM19.2454 21.0518C17.1553 21.0518 15.4639 19.3626 15.4639 17.268C15.4639 15.1847 17.1553 13.491 19.2454 13.491C21.3332 13.491 23.0247 15.1824 23.0247 17.268C23.0247 19.3626 21.3332 21.0518 19.2454 21.0518ZM38.8152 19.0541L33.1914 9.81306H32.6283H29.0923H28.5314V24.8716H32.6305V15.6284L38.2589 24.8694H42.9188V9.81306H38.8175V19.0541H38.8152ZM60.0652 15.8716H59.9323H55.9323H52.1801V18.545H55.9774C55.4481 20.1351 53.9481 21.2793 52.1801 21.2793C49.9661 21.2793 48.1688 19.4865 48.1688 17.268C48.1688 15.0586 49.9661 13.2635 52.1801 13.2635C53.2387 13.2635 54.2004 13.6779 54.9166 14.3491H59.635C58.4661 11.3694 55.5675 9.26802 52.1801 9.26802C47.7589 9.26802 44.1778 12.8514 44.1778 17.268C44.1778 21.6914 47.7589 25.277 52.1801 25.277C56.6013 25.277 60.1823 21.6892 60.1823 17.268C60.1823 16.7973 60.1418 16.3266 60.0652 15.8716ZM66.4278 5.16216H61.7499V0.5H66.4278V5.16216ZM66.4278 25.2477H61.7499V9.74099H66.4278V25.2477Z" fill="black"/>
</g>
<defs>
<clipPath id="clip0_1185_16083">
<rect width="66.2162" height="25" fill="white" transform="translate(0.263428 0.5)"/>
</clipPath>
</defs>
</svg>
