<svg width="84" height="26" viewBox="0 0 84 26" fill="none" xmlns="http://www.w3.org/2000/svg">
<g clip-path="url(#clip0_1185_16025)">
<path d="M43.2627 4.90065V6.30371H44.9527H46.6428V4.90065V3.49759H44.9527H43.2627V4.90065Z" fill="black"/>
<path d="M39.4984 7.9941C38.4908 8.24282 37.4704 8.99538 36.89 9.90737L36.6923 10.2199V9.1867V8.15354H35.0341H33.376V14.276V20.3984H35.0341H36.6923V16.5464V12.6944L36.9665 12.3245C38.0316 10.8831 39.441 10.3984 41.0801 10.9214L41.2204 10.966V9.47369V7.97497L41.0801 7.9367C40.825 7.87293 39.8619 7.90481 39.4984 7.9941Z" fill="black"/>
<path d="M52.1718 7.99989C50.4499 8.31239 49.2637 9.34555 48.9065 10.8379C48.6004 12.1389 49.0404 13.3379 50.1119 14.1287C50.6157 14.4986 51.1769 14.7792 52.2547 15.2001C54.2828 15.991 54.9333 16.4757 54.9333 17.2091C54.9333 17.9361 54.2637 18.4336 53.1795 18.5292C52.3249 18.5994 50.7369 18.2741 49.4103 17.7512C49.0978 17.63 48.8236 17.5279 48.7981 17.5279C48.7662 17.5279 48.7471 18.0828 48.7471 18.7652V20.0024L49.4103 20.2766C51.0303 20.9016 52.8795 21.1311 54.2062 20.8569C56.3553 20.4295 57.5861 18.8287 57.4269 16.7751C57.3185 15.3593 56.5531 14.3581 55.0669 13.6439C54.6906 13.4591 53.8488 13.1274 53.178 12.8917C51.7688 12.4069 51.3671 12.1261 51.3671 11.5137C51.3671 10.7165 52.1526 10.2253 53.3897 10.2253C54.1497 10.2253 55.3869 10.5506 56.2733 10.9781L56.7006 11.1757L56.7197 9.89851L56.7325 8.6277L56.3553 8.47429C55.2647 8.01283 53.2877 7.76411 52.1718 7.99989Z" fill="black"/>
<path d="M64.1858 8.00635C61.2262 8.59851 59.3874 10.9271 59.4128 14.0329C59.4192 15.2318 59.6679 16.1374 60.2099 17.0749C61.1728 18.7398 62.7737 19.6518 64.9163 19.7986C65.4647 19.8363 66.1853 19.7923 66.9007 19.6774V17.88C66.2749 18.1222 65.4011 18.2562 64.8145 18.1862C63.3347 18.0075 62.3654 17.1082 62.0466 15.6156L61.961 15.2137H64.5282H67.0955V14.2316C67.0955 12.4388 66.8085 11.3164 66.0877 10.2771C65.2013 8.98691 64.6975 8.36287 64.1858 8.00635ZM64.6003 10.3669C65.1169 10.9845 65.3273 11.6149 65.3656 12.7629L65.3847 13.4389H63.6437H61.9027L61.9409 13.2797C62.1004 12.5271 62.3109 11.9094 62.5659 11.4224C63.0824 10.4341 63.8488 9.96619 64.6003 10.3669Z" fill="black"/>
<path d="M72.4919 7.99989C70.6467 8.33827 69.4224 9.34555 69.0588 10.8316C68.7527 12.1325 69.1927 13.3315 70.2578 14.1224C70.7616 14.4922 71.3292 14.7728 72.3943 15.1937C74.4288 15.9846 75.0729 16.4693 75.0729 17.2091C75.0729 17.9361 74.4097 18.4272 73.319 18.5292C72.4645 18.5994 70.8765 18.2677 69.5498 17.7449C69.2374 17.6236 68.9632 17.5215 68.9377 17.5215C68.9058 17.5215 68.8867 18.0764 68.8867 18.7588V19.996L69.5498 20.2702C71.1699 20.8953 73.019 21.1248 74.3457 20.8505C76.4948 20.4231 77.7257 18.8224 77.5664 16.7751C77.458 15.3529 76.6926 14.3517 75.2001 13.6375C74.8238 13.4527 73.9884 13.121 73.3176 12.8917C71.9084 12.4005 71.5003 12.1197 71.5003 11.5073C71.5003 10.7101 72.2922 10.2189 73.5293 10.2189C74.2893 10.2189 75.5265 10.5442 76.4129 10.9717L76.8402 11.1693L76.8593 9.89211L76.8721 8.6213L76.4948 8.46788C75.4043 8.01283 73.4273 7.76411 72.4919 7.99989Z" fill="black"/>
<path d="M43.2627 8.15991V20.3984H44.9527H46.6428V8.15991V8.15354H44.9527H43.2627V8.15991Z" fill="black"/>
<path d="M78.818 14.276V20.3984H80.5081H82.1981V14.276V8.15354H80.5081H78.818V14.276Z" fill="black"/>
<path d="M78.818 4.90065V6.30371H80.5081H82.1981V4.90065V3.49759H80.5081H78.818V4.90065Z" fill="black"/>
<path d="M16.7497 0.244629C16.6604 0.263498 16.3671 0.326632 16.1057 0.389766C12.7891 1.12189 10.2474 3.22549 8.74491 6.51329C8.3368 7.38526 7.90912 8.66245 7.69606 9.61719L7.6134 9.97689H9.63997H11.6665L11.7683 9.65714C12.3613 7.86075 13.4072 6.24992 14.5487 5.46548C15.4797 4.83506 16.4553 4.57991 17.7756 4.61178C19.332 4.65003 20.3649 5.10512 21.3149 6.10602C22.5457 7.40265 23.1833 9.31792 23.2596 11.7614C23.3486 14.6064 22.6408 16.8006 21.1165 18.3886C20.3139 19.2222 19.3574 19.6177 18.0817 19.6753C16.8445 19.7329 15.8752 19.4586 15.1344 18.852C14.2097 18.0932 13.4583 16.7332 12.9227 14.9305L12.8273 14.6235H10.8007H8.77418L8.86958 15.0024C9.91684 19.0305 12.1787 21.8691 15.1727 23.0681C15.9327 23.3686 16.8446 23.5854 17.7566 23.6745C18.3241 23.7313 19.6189 23.7249 20.1609 23.6617C23.3232 23.2855 25.7375 21.2012 27.1021 17.725C27.7269 16.1434 28.0266 14.4658 28.0649 12.4505C28.1476 7.66438 26.5594 3.96726 23.6546 1.88954C22.2709 0.900622 20.9634 0.408028 19.2478 0.257032C18.7885 0.213361 17.0094 0.19449 16.7497 0.244629Z" fill="#E30613"/>
</g>
<defs>
<clipPath id="clip0_1185_16025">
<rect width="82.7879" height="24.5455" fill="white" transform="translate(0.282715 0.227295)"/>
</clipPath>
</defs>
</svg>
