<svg width="52" height="32" viewBox="0 0 52 32" fill="none" xmlns="http://www.w3.org/2000/svg">
<g clip-path="url(#clip0_1185_15995)">
<path d="M1.66992 31.9781H47.4983C49.7492 31.9781 51.6365 30.1621 51.6365 27.8385V18.469C26.7259 18.0327 7.04519 28.7098 1.66992 31.9781Z" fill="black"/>
<path d="M51.6364 16.2915V0.0224609H4.13964C1.888 0.0224609 0 1.84064 0 4.16355V30.4515C4.79273 27.4748 25.3469 15.8552 51.6364 16.2915Z" fill="black"/>
<path d="M9.2236 6.70503C8.78724 6.19594 8.35088 5.97775 7.77051 5.97775C7.04469 5.97775 6.53633 6.41412 6.53633 6.99375C6.53633 7.50284 6.82724 7.71957 7.91669 8.15594C8.93197 8.51957 9.2956 8.73775 9.73197 9.02866C10.2396 9.46284 10.5305 10.1159 10.5305 10.9159C10.5305 12.6585 9.29633 13.8934 7.40833 13.8934C6.1007 13.8934 5.15597 13.3843 4.35742 12.2228L5.5196 11.1341C5.95597 11.9341 6.60906 12.2956 7.40906 12.2956C8.2076 12.2956 8.78797 11.7887 8.78797 11.0614C8.78797 10.6992 8.64251 10.4083 8.27888 10.1908C8.13488 10.0454 7.77124 9.89994 7.04542 9.60903C5.66379 9.10139 5.08342 8.59085 4.86378 7.94066C4.79178 7.71957 4.71833 7.42866 4.71833 7.13921C4.71833 5.46866 5.88033 4.37921 7.55379 4.37921C8.71433 4.37921 9.58488 4.88685 10.3849 5.97775L9.2236 6.70503Z" fill="white"/>
<path d="M18.8898 4.59521L21.288 13.5998H19.5433L19.1069 11.7145H15.6324L15.1946 13.5998H13.5938L15.9935 4.59521H18.8898ZM18.7444 10.2614L17.3642 5.24948L15.9935 10.2614H18.7444Z" fill="white"/>
<path d="M30.1413 13.5998H28.3966V7.86161L26.2896 11.6434L24.1826 7.86161V13.5998H22.5078V4.59521H24.1841L26.2896 8.59088L28.3966 4.59521H30.1413V13.5998Z" fill="white"/>
<path d="M37.8882 4.59521L40.2864 13.5998H38.5417L38.1039 11.7145H34.6308L34.193 13.5998H32.5938L34.9935 4.59521H37.8882ZM37.7428 10.2614L36.3626 5.24948L34.9919 10.2614H37.7428Z" fill="white"/>
</g>
<defs>
<clipPath id="clip0_1185_15995">
<rect width="51.6364" height="31.9556" fill="white" transform="translate(0 0.0224609)"/>
</clipPath>
</defs>
</svg>
