<svg version="1.2" xmlns="http://www.w3.org/2000/svg" viewBox="0 0 1552 340" width="1552" height="340">
	<title>Residential Inverter Technical Whitepaper</title>
	<defs>
		<clipPath clipPathUnits="userSpaceOnUse" id="cp1">
			<path d="m-9288.87-1433.06h11948.42v16888.12h-11948.42z"/>
		</clipPath>
	</defs>
	<style>
		.s0 { fill: #ee7800 } 
		.s1 { fill: #656464 } 
	</style>
	<g id="Clip-Path: Page 1" clip-path="url(#cp1)">
		<g id="Page 1">
			<path id="Path 1" fill-rule="evenodd" class="s0" d="m1316.2 20.1v21c0 5.1-2 10.1-7 13.1q-10 6-22.1 10v-32.1c0 0 0-6-64.2-6-64.2 0-64.2 6-64.2 6v52.2c0 6-2 11-7 14q-10 6-22.1 10v-88.2c9.1-21.1 79.3-19.1 93.3-19.1 14.1 0 84.3-2 93.3 19.1zm-21 58.1q10-6 21-10v89.3c-9 20-79.2 19-93.3 19-14 0-84.2 1-93.3-19v-21.1c0-6 3-11 8.1-14q10-6 21-10.1v32.1c0 1 1 6.1 64.2 6.1 64.2 0 64.2-6.1 64.2-6.1v-52.1c0-6 3-11 8.1-14.1zm-904.9-75.2h29v154.5c-9 20-78.2 19-92.3 19-14 0-83.2 1-92.2-19v-154.5h29v141.4c0 0 0 6.1 63.2 6.1 63.3 0 63.3-6.1 63.3-6.1zm1161.7 0v171.5h-19.1c-4 0-9-2-12-5l-65.2-65.2-64.2 65.2c-4 3-8.1 5-13.1 5h-19v-171.5h27.1v134.4l69.2-69.2 69.2 69.2v-134.4zm-678.2 121.4c0 7 0 45.1-10 50.1h-161.5c-19.1-8-18.1-72.2-18.1-85.2 0-13.1-1-77.2 18.1-86.3h169.5q-4 13.1-10 23.1c-4 5-9 8-15.1 8h-129.4c0 0-5 0-5 55.2 0 55.1 5 55.1 5 55.1h126.4c0 0 3 0 3-20 0-23.1-3-24.1-3-24.1h-80.2q4-10 9-19c3-5.1 8-8.1 14-8.1h77.3c10 5.1 10 43.2 10 51.2zm156.5-24.1l73.3 74.2h-34.2c-5 0-9-2-13-5l-68.2-69.2h-46.2v74.2h-27v-101.3h141.4c0 0 3 0 3-21 0-18.1-3-18.1-3-18.1h-141.4v-31.1h161.5c11 5.1 10 41.2 10 49.2 0 8 1 44.1-10 48.1zm-836.7 5v38.1c0 0 0 31.1-36.1 31.1h-156.5q4-12 10-23c3-4.1 9-7.1 15-7.1h131.5c9 0 9-9 9-9v-26.1c0 0 0-9-9-9h-120.4c-36.1 0-36.1-31.1-36.1-31.1v-34.1c0 0 0-32.1 36.1-32.1h154.5q-3 13.1-10.1 23.1c-3 5-9 8-14 8h-130.4c-9.1 0-9.1 8-9.1 8v23.1c0 0 0 8 9.1 8h120.4c36.1 0 36.1 32.1 36.1 32.1zm425.3-102.3h29.1v171.5h-19c-4 0-9-2-12.1-5l-126.4-126.3v131.3h-29.1v-171.5h19.1c4 0 9 2 12 6.1l126.4 126.3z"/>
			<path id="Path 2" fill-rule="evenodd" class="s1" d="m240.8 311.9q-9.1-11-9.1-29.1 0-18 9.1-28 10-11.1 27.1-11.1 12 0 22 7 9.1 7.1 10.1 18.1h-3c-2.1 0-4.1-1-5.1-3q-3-6-8-10-7-5.1-16-5.1-13.1 0-21.1 8.1-8 9-8 24 0 15.1 8 24.1 8 9 21.1 9 9 0 16-5 5-3 8-9c1-2 3-3 5.1-3h3q-2 11-10.1 17-9 6-22 6-17.1 0-27.1-10zm77.2 10v-79.2h3c3 0 5 2 5 4v75.2zm71.3-17h4q-1 7-8 12-7.1 5-17.1 5-12 0-20.1-8-7-8-7-22 0-14.1 7-23.1 8.1-8 20.1-8 12 0 19.1 8 7 8 7 21.1v3h-46.2v1q0 10 6.1 16 5 6 14 6 7 0 12-3 3.1-2 5.1-6c1-1 2-2 4-2zm-35.1-32.1q-5.1 5-6.1 14h38.2q0-9-5.1-14-5-6-13-6-9 0-14 6zm61.2 45.1q-5.1-5-5.1-13 0-8 6.1-12 5-5.1 16-5.1l19.1-2v-5q0-6-4-10-4.1-4-12.1-4-6 0-10 3-3 3-4 6c-1 2-3 3-5 3h-3q0-8 6-13 7-5 16-5 11.1 0 17.1 5 6 5 6 15v41.1h-7v-12q-3 6-8.1 9-6 3-13 3-9 0-15-4zm30.1-7q6-5 6-12v-7l-18.1 2q-16 1-16 11 0 5 4 8 4 3 11 3 8 0 13.1-5zm29 11v-61.1h2.1c3 0 5 2 5 5v7q2-6 8-9 5-3 12-3 10.1 0 16.1 6 6 6 6 16v39.1h-7v-38.1q0-8-5-12-4-5-12.1-5-8 0-13 6-5 5-5 13v36.1zm204.6-8q-8-8-8-22 0-14.1 8-23.1 8.1-8 20.1-8 13 0 21.1 8 7 9 7 23.1 0 14-7 22-8.1 8-21.1 8-12 0-20.1-8zm35.1-5q6.1-6 6.1-17 0-12.1-6.1-18.1-5-7-15-7-9 0-15.1 7-5 6-5 18.1 0 11 5 17 6.1 7 15.1 7 10 0 15-7zm161.6-4h4q-1 7-8.1 12-7 5-17 5-12 0-20.1-8-7-8-7-22 0-14.1 7-23.1 8.1-8 20.1-8 12 0 19.1 8 7 8 7 21.1v3h-46.2v1q1 10 6 16 5.1 6 14.1 6 7 0 12-3 3-2 5-6c1.1-1 2.1-2 4.1-2zm-35.2-32.1q-5 5-6 14h38.2q0-9-5.1-14-5-6-13-6-9 0-14.1 6z"/>
			<path id="Path 3" fill-rule="evenodd" class="s1" d="m652.1 268.8q7 9 7 23.1 0 13-7 22-7 8-19.1 8-7 0-12-3-6-4-8-10h-1v31.1h-7.1v-79.2h2c3.1 0 5.1 2 5.1 5v8q3-6 8-10 6-3 13-3 12.1 0 19.1 8zm-6 40.1q5-7 5-17 0-11.1-5-18.1-5-7-14.1-7-9 0-14 7-6 7-6 18.1 0 10 6 17 5 7 14 7 9.1 0 14.1-7zm171.5-48.1l-17 61.1h-8.1l-15-51.1-15.1 51.1h-8l-17-61.1h4c2 0 4 2 4 4l13 48.1 15.1-52.1h8l15.1 52.1 13-48.1c0-2 2-4 4-4zm81.3 61.1v-61.1h2c3 0 5 2 5 5v6q2-5 6-8 4-3 9-3 2.1 0 3.1 0 1 0 2 0v8q-1-1-2-1-2.1 0-4.1 0-6 0-10 4-4 5-4 12v38.1zm327-4q-5-5-5-13 0-8 5-12 6.1-5.1 17.1-5.1l18.1-2v-5q0-6-4.1-10-4-4-11-4-6 0-10 3-3 3-5 6c0 2-2 3-4 3h-4.1q1-8 7.1-13 7-5 16-5 11 0 17.1 5 6 5 6 15v41.1h-7v-12q-3 6-9.1 9-5 3-12 3-9 0-15.1-4zm30.1-7q5.1-5 5.1-12v-7l-17.1 2q-16 1-16 11 0 5 4 8 4 3 10 3 8 0 14-5zm33.2 11v-79.2h3c3 0 5 2 5 4v75.2zm25.1 0v-79.2h3c3 0 5 2 5 4v75.2z"/>
			<path id="Path 4" fill-rule="evenodd" class="s1" d="m1050.4 313.9q-8.1-8-8.1-22 0-14.1 8.1-23.1 7-8 20-8 13.1 0 20.1 8 8 9 8 23.1 0 14-8 22-7 8-20.1 8-13 0-20-8zm35.1-5q5-6 5-17 0-12.1-5-18.1-6-7-15.1-7-10 0-15 7-5 6-5 18.1 0 11 5 17 5 7 15 7 9.1 0 15.1-7zm30.1 13v-61.1h3c2 0 4 2 4 5v6q2-5 6-8 4-3 10.1-3 1 0 2 0 2 0 2 0v8q-1-1-2-1-2 0-3 0-7.1 0-11.1 4-3 5-3 12v38.1zm-87.3-79.2v6q-2 0-4 0c-3 0-5 0-6 2-1 1-2 3-2 7.1v7h12v6h-12v51.1h-7v-51.1h-9.1v-6h9.1v-7c0-7.1 1-9.1 3-12.1 3-2 6-3 12-3q2 0 4 0z"/>
		</g>
	</g>
</svg>