<svg version="1.2" xmlns="http://www.w3.org/2000/svg" viewBox="0 0 1525 338" width="1525" height="338">
	<title>Trina_Solar_logo-svg</title>
	<style>
		.s0 { fill: #e60013 } 
		.s1 { fill: #2da7df } 
	</style>
	<path id="path3915" class="s0" d="m402.7 117.2c-32.4 0-58.5-26.1-58.5-58.4 0-32.4 26.1-58.5 58.5-58.5 32.4 0 58.5 26.1 58.5 58.5 0 32.3-26.1 58.4-58.5 58.4z"/>
	<path id="path3951" fill-rule="evenodd" class="s1" d="m204.1 50.9c72.8 0 70.1 78.1 70.1 78.1h-99.7v208.4h-74.7v-208.4h-99.5c0 0-2.9-78.1 69.9-78.1zm626.5 161.4v125.1h-134.9c-20.2 0-53.7-22.6-53.7-58 0-35.5 25.9-63.2 56.4-63.2h69.5v-7c0-3.6-2.6-5.2-6.2-5.2h-117.5c0 0-0.8-16.3-13.4-34.6-12.5-18.3-27.5-25.4-27.5-25.4h164.6c30 0 62.7 23.3 62.7 68.3zm-62.7 53.9h-52.8c-4.3 0-6.7 3.5-6.7 7.6 0 4 2.4 7.7 6.7 7.7h52.8zm-405-122.2h72.2v193.4h-72.2zm264.4 75.6v117.8h-71.5v-116.9c0-7.7-7.3-14-16-14-8.6 0-15.8 6.3-15.8 14v116.9h-71.5v-193.4h87.3c47.8 0 86.9 33.5 87.5 75.6q0 0 0 0zm-281.3-75.6v63.2c-0.4-0.1-34.2-0.7-54 17.3-9.1 8.4-15.8 19.8-17.9 34.9v78h-68v-193.4h68v16.6c33.4-16.9 67.1-16.8 71.9-16.6zm1085.9 2.5h23.8v27.2c7.2-10.7 14.8-18.7 22.9-24q12.1-8 25.2-8 9.8 0 21.1 6.3l-12.4 20.2q-7.5-3.2-12.6-3.2-11.9 0-22.9 9.8-11.1 9.9-16.9 30.5-4.4 16-4.4 64.3v63h-23.8zm-19.7 0v186.1h-23.8v-32c-9.9 12.3-21.1 21.4-33.6 27.6-12.3 6.1-25.9 9.2-40.6 9.2q-39.3 0-67-28.7-27.8-28.6-27.8-69.7c0-26.8 9.4-49.7 28-68.7q28.1-28.6 67.5-28.6 22.7 0 41.2 9.8c12.2 6.5 23 16.2 32.3 29.2v-34.2zm-95.3 18.5c-13.2 0-25.4 3.3-36.5 9.8q-16.7 9.8-26.6 27.6-9.9 17.8-9.9 37.6 0 19.6 9.9 37.6 10 17.9 26.8 27.9c11.3 6.7 23.3 10 36.2 10q19.4 0 36.8-9.9c11.6-6.6 20.6-15.5 26.8-26.8 6.3-11.3 9.4-24 9.4-38.1q0-32.3-21.1-54c-14-14.5-31.3-21.7-51.8-21.7zm-136.7-85.6h23.7v258h-23.7zm-112 62.3q42.5 0 70.5 31.1 25.5 28.4 25.5 67.2-0.1 39-26.9 68.2-26.9 29.1-69.1 29.1c-28.2 0-51.3-9.7-69.2-29.1q-26.9-29.2-26.9-68.2 0-38.6 25.4-67 28-31.3 70.7-31.3zm-0.1 23.2c-19.6 0-36.4 7.4-50.5 22.2-14 14.9-21.1 32.8-21.1 53.8q0 20.3 9.6 37.9 9.6 17.6 26 27.1c10.9 6.4 22.9 9.5 36 9.5 13.1 0 25-3.1 36-9.5q16.4-9.5 26-27.1 9.6-17.6 9.6-37.9 0-31.5-21.2-53.8c-14.1-14.8-30.9-22.2-50.4-22.2zm-109.2 1.2l-15.3 15.9q-19.1-18.4-37.4-18.4c-7.7 0-14.3 2.6-19.8 7.7-5.5 5.2-8.3 11.3-8.3 18.1q0 9.2 6.8 17.5c4.6 5.6 14.1 12.3 28.6 19.8 17.7 9.3 29.7 18.3 36 26.8 6.3 8.7 9.4 18.4 9.4 29.2 0 15.3-5.3 28.2-16 38.8-10.7 10.6-24 15.8-40 15.8-10.7 0-20.9-2.2-30.5-6.7-9.8-4.5-17.8-10.7-24.1-18.6l14.9-17.1c12.1 13.7 25.1 20.5 38.8 20.5q14.3 0 24.4-9.3 10.1-9.3 10.1-22 0-10.4-6.7-18.5-6.7-7.9-30.1-20c-16.8-8.7-28.2-17.3-34.2-25.7q-9.1-12.7-9.1-29 0-21.2 14.5-35.2c9.6-9.3 21.7-14 36.4-14 17.1 0 34.3 8.1 51.6 24.4z"/>
</svg>